<?xml version="1.0" standalone="no"?>
<!DOCTYPE svg PUBLIC "-//W3C//DTD SVG 20010904//EN"
 "http://www.w3.org/TR/2001/REC-SVG-20010904/DTD/svg10.dtd">
<svg version="1.0" xmlns="http://www.w3.org/2000/svg"
 width="260.000000pt" height="260.000000pt" viewBox="0 0 260.000000 260.000000"
 preserveAspectRatio="xMidYMid meet">
<metadata>
Created by potrace 1.14, written by Peter Selinger 2001-2017
</metadata>
<g transform="translate(0.000000,260.000000) scale(0.100000,-0.100000)"
fill="#000000" stroke="none">
<path d="M0 1300 l0 -1300 455 0 c250 0 455 4 455 8 0 4 -4 12 -8 18 -5 5 -19
27 -32 49 l-23 40 40 -45 c22 -25 38 -50 36 -57 -4 -10 164 -13 836 -13 l841
0 -2 268 -3 267 -37 18 c-38 19 -38 19 -38 80 0 34 -7 105 -16 157 -9 52 -17
105 -18 117 -1 12 -7 28 -13 35 -6 7 -14 25 -18 41 -4 15 -10 27 -14 27 -3 0
-7 15 -8 34 -1 19 -9 48 -18 65 -9 19 -13 41 -9 53 4 13 2 18 -4 14 -6 -4 -8
2 -4 16 5 19 8 16 20 -22 8 -25 20 -48 25 -52 12 -7 47 -96 47 -119 0 -9 9
-24 20 -34 20 -18 20 -18 9 14 -20 58 -1 44 21 -16 12 -32 26 -63 31 -69 7 -8
6 -14 -1 -19 -5 -3 -10 0 -10 7 0 8 -6 22 -12 31 -11 14 -13 4 -12 -63 0 -88
16 -123 33 -77 6 15 8 41 4 57 -5 25 -3 29 11 24 22 -9 21 18 -4 58 -22 36
-26 63 -9 53 6 -4 14 -17 19 -29 5 -13 9 50 9 165 1 168 -1 188 -16 193 -11 5
-13 10 -7 14 16 10 26 60 14 67 -5 3 -10 0 -11 -7 0 -7 -5 -2 -10 12 -6 14 -8
33 -5 43 2 10 -1 20 -8 23 -8 3 -14 25 -15 56 -1 28 -4 55 -7 59 -3 5 0 9 7 9
10 0 10 3 1 12 -7 7 -12 23 -12 36 0 18 -3 22 -12 15 -7 -6 -25 -13 -41 -17
-23 -5 -26 -10 -21 -31 3 -14 2 -25 -3 -25 -4 0 -8 -16 -7 -35 1 -19 -2 -38
-7 -41 -5 -3 -9 0 -9 7 0 8 -3 9 -13 0 -8 -6 -17 -8 -20 -4 -4 3 -7 -4 -7 -16
0 -34 -34 -23 -38 12 -3 22 1 27 17 27 25 0 26 9 6 36 -14 19 -14 18 -15 -3
l0 -23 -25 22 c-14 12 -25 30 -25 41 0 18 1 18 25 3 29 -19 33 -6 10 34 -17
29 -19 44 -5 35 10 -6 -4 47 -22 79 -8 15 -6 22 8 33 17 13 17 14 -1 27 -35
25 -62 51 -68 66 -4 11 -6 10 -6 -5 -2 -39 -15 -47 -40 -24 -16 15 -21 29 -18
47 3 14 0 37 -6 51 -5 15 -9 30 -8 35 1 5 -7 32 -18 60 -22 56 -53 177 -48
183 2 1 10 -16 17 -39 7 -24 23 -65 36 -93 12 -27 28 -73 35 -101 7 -29 20
-62 30 -75 16 -20 15 -13 -5 41 -13 36 -30 85 -37 109 -7 24 -19 49 -26 56 -6
7 -12 21 -12 31 0 29 -13 78 -22 84 -5 3 -21 31 -37 63 -16 31 -33 54 -37 49
-5 -4 -5 -2 -2 4 4 7 -8 41 -26 76 -17 35 -45 92 -61 126 l-28 62 -969 0 -969
0 0 -1300z m2090 956 c0 -12 -5 -7 -19 24 -11 24 -11 24 3 6 9 -11 16 -24 16
-30z m-875 -171 c13 -18 20 -37 16 -48 -6 -16 -8 -16 -30 4 -29 28 -51 79 -51
121 l0 33 21 -40 c12 -22 31 -53 44 -70z m-77 -19 c37 -51 39 -61 13 -63 -15
-1 -23 10 -35 44 -26 77 -22 81 22 19z m-60 -176 c23 0 62 -44 62 -70 0 -11 5
-20 10 -20 6 0 10 6 10 14 0 15 58 28 62 14 2 -5 18 -6 36 -2 21 4 32 12 32
24 0 10 6 23 13 29 11 8 16 5 25 -15 11 -22 16 -24 49 -18 21 4 43 7 50 7 7 0
10 4 7 8 -9 15 13 18 39 4 15 -8 27 -11 27 -7 0 4 5 0 10 -8 7 -12 12 -12 22
-2 9 9 9 12 0 12 -7 0 -12 3 -12 8 0 11 101 4 116 -9 7 -6 18 -8 24 -4 5 3 22
-3 36 -14 20 -15 22 -21 10 -21 -17 0 -21 -12 -9 -24 4 -3 8 -16 10 -28 2 -12
8 -26 13 -33 5 -6 5 -16 0 -25 -5 -8 -7 -22 -4 -32 2 -9 -1 -20 -7 -24 -9 -5
-10 -2 -6 9 3 10 2 17 -3 17 -6 0 -10 6 -10 14 0 8 -4 17 -9 20 -9 6 -5 -79 4
-95 4 -5 11 -7 16 -3 5 3 6 10 3 16 -4 6 -3 8 3 5 5 -3 8 -37 6 -78 -3 -51 0
-75 9 -81 10 -6 8 -8 -4 -8 -20 0 -22 -8 -8 -30 7 -10 12 -12 18 -4 4 6 16 16
28 22 16 9 21 8 21 -4 0 -7 -4 -14 -9 -14 -5 0 -4 -9 2 -20 8 -15 8 -20 -1
-20 -7 0 -10 -11 -7 -28 2 -16 -2 -34 -9 -41 -7 -6 -16 -24 -19 -39 -4 -15
-15 -39 -26 -54 -10 -15 -24 -42 -30 -60 -12 -35 -94 -125 -105 -115 -3 4 -1
13 6 20 9 12 7 13 -15 9 -17 -3 -22 -8 -15 -15 6 -6 1 -17 -15 -32 -13 -12
-24 -27 -24 -33 0 -14 -81 -78 -95 -75 -6 2 -28 -6 -49 -16 -21 -11 -44 -17
-51 -15 -14 6 -39 -29 -28 -40 3 -3 -1 -6 -10 -6 -9 0 -19 5 -22 10 -3 6 2 10
11 10 13 0 15 3 7 11 -8 8 -19 6 -40 -4 -23 -13 -34 -13 -50 -4 -11 7 -40 23
-64 36 -24 13 -56 34 -70 48 -14 13 -31 23 -36 21 -18 -5 -75 43 -69 58 3 8 1
14 -5 14 -13 0 -89 78 -90 93 -1 7 -1 15 0 20 0 4 -4 7 -9 7 -6 0 -9 3 -9 8 1
4 0 10 -1 15 -1 4 -4 12 -5 17 -1 6 -4 12 -5 15 -1 3 -3 8 -5 13 -1 4 -11 27
-23 52 -12 25 -22 53 -22 63 0 10 -5 27 -10 38 -8 14 -7 19 2 19 9 0 10 3 2 8
-6 4 -14 29 -18 56 -4 27 -16 57 -26 68 -19 20 -35 66 -26 75 2 3 14 0 25 -6
17 -9 24 -8 39 7 11 11 32 22 48 26 38 9 114 54 114 67 0 5 -11 7 -25 3 -15
-4 -25 -2 -25 5 0 6 -7 8 -15 5 -8 -4 -15 -1 -15 5 0 6 11 11 25 11 13 0 29 8
35 18 11 16 11 16 6 -2 -5 -14 -2 -17 10 -12 8 3 20 6 25 6 6 0 7 9 4 20 -10
32 21 25 34 -7 9 -22 10 -7 7 72 -3 55 -2 94 0 87 9 -20 24 -3 24 26 1 24 4
22 26 -20 15 -30 31 -48 42 -48z m287 79 c11 -17 -1 -21 -15 -4 -8 9 -8 15 -2
15 6 0 14 -5 17 -11z m-135 -74 c0 -8 -4 -15 -9 -15 -13 0 -22 16 -14 24 11
11 23 6 23 -9z m-423 -145 l26 -20 -35 0 c-39 0 -49 6 -41 26 7 19 20 18 50
-6z m-50 -106 c-3 -3 -12 -4 -19 -1 -8 3 -5 6 6 6 11 1 17 -2 13 -5z m1556 -9
c-3 -9 -8 -14 -10 -11 -3 3 -2 9 2 15 9 16 15 13 8 -4z m199 -37 c-7 -7 -12
-8 -12 -2 0 6 3 14 7 17 3 4 9 5 12 2 2 -3 -1 -11 -7 -17z m-53 -367 c1 -30
-7 -24 -13 10 -2 13 -9 23 -15 22 -15 -4 -14 14 2 20 14 5 25 -17 26 -52z m8
-53 c-3 -8 -6 -5 -6 6 -1 11 2 17 5 13 3 -3 4 -12 1 -19z m27 -88 c-5 -5 -10
3 -11 18 -1 22 0 24 9 8 6 -10 6 -22 2 -26z m-107 -12 c-3 -8 -6 -5 -6 6 -1
11 2 17 5 13 3 -3 4 -12 1 -19z m-586 -46 c-18 -36 -29 -82 -19 -76 12 8 5
-19 -29 -101 -28 -69 -55 -158 -58 -196 -7 -66 -44 -161 -118 -304 -9 -17 -8
-18 5 -8 8 7 32 51 54 97 21 47 43 85 48 86 9 0 3 -51 -10 -84 -6 -15 -4 -17
6 -11 10 6 12 1 7 -25 -4 -18 -7 -38 -7 -45 0 -17 -262 -80 -380 -91 l-68 -7
5 40 c6 47 -14 124 -59 220 -19 42 -27 68 -20 71 7 2 3 15 -10 33 -26 35 -16
50 15 22 12 -11 32 -26 44 -32 27 -14 106 -14 156 0 53 14 152 101 207 180 52
76 221 260 232 253 4 -3 4 -13 -1 -22z m596 -14 c-3 -7 -5 -2 -5 12 0 14 2 19
5 13 2 -7 2 -19 0 -25z m-37 -33 c0 -5 -5 -3 -10 5 -5 8 -10 20 -10 25 0 6 5
3 10 -5 5 -8 10 -19 10 -25z m5 -36 c10 -30 2 -32 -12 -3 -6 13 -7 24 -3 24 5
0 12 -9 15 -21z m95 -61 c0 -9 -4 -20 -10 -23 -5 -3 -10 2 -10 12 0 10 -3 29
-6 43 -6 24 -6 25 9 5 9 -11 17 -28 17 -37z m-70 -35 c0 -26 3 -31 18 -27 16
5 16 5 0 -9 -12 -10 -19 -34 -22 -83 -2 -38 -9 -80 -15 -94 -9 -21 -9 -18 -3
15 4 22 6 89 5 150 -1 71 1 104 7 95 6 -8 10 -29 10 -47z m57 -25 c-3 -8 -6
-5 -6 6 -1 11 2 17 5 13 3 -3 4 -12 1 -19z m48 -95 c4 -34 3 -69 -2 -77 -6
-12 -9 -6 -9 21 1 21 -2 63 -7 93 -4 33 -4 49 2 40 5 -8 12 -43 16 -77z m-770
-105 c-4 -13 -10 -39 -15 -58 l-8 -35 -1 31 c0 16 5 42 12 57 15 33 22 35 12
5z m-544 -288 c5 0 9 6 10 13 0 6 7 -6 15 -27 8 -22 11 -43 7 -47 -11 -11 -93
2 -93 14 0 6 10 26 23 44 15 22 23 28 25 18 2 -8 8 -15 13 -15z m-384 -272
c-3 -7 -5 -2 -5 12 0 14 2 19 5 13 2 -7 2 -19 0 -25z"/>
<path d="M1307 1818 c6 -11 63 -10 63 0 0 5 -15 8 -34 8 -19 -1 -32 -4 -29 -8z"/>
<path d="M1484 1820 c-13 -13 -74 -22 -154 -25 -36 -1 -74 -5 -85 -10 -18 -9
-17 -10 10 -16 91 -20 197 0 234 44 15 18 11 23 -5 7z"/>
<path d="M955 1650 c-4 -17 -5 -34 -2 -36 3 -3 8 9 12 26 4 17 5 34 2 36 -3 3
-8 -9 -12 -26z"/>
<path d="M1241 1493 c-1 -7 -33 -14 -86 -18 -61 -5 -91 -13 -106 -26 -12 -11
-24 -19 -26 -19 -13 0 -79 33 -85 43 -6 9 -10 9 -17 -2 -10 -15 -3 -51 10 -51
5 0 9 -9 9 -21 0 -12 14 -34 31 -50 42 -39 108 -41 137 -5 10 14 44 37 76 53
57 28 73 51 63 90 -3 10 -5 13 -6 6z"/>
<path d="M1436 1381 c-7 -10 22 -37 30 -28 4 3 -1 13 -9 22 -9 8 -18 11 -21 6z"/>
<path d="M1337 1293 c-4 -3 -51 -7 -104 -8 -74 -2 -99 -6 -108 -18 -9 -13 -18
-14 -51 -6 -47 12 -109 -9 -119 -41 -3 -11 -11 -20 -16 -20 -5 0 -9 -5 -9 -11
0 -7 11 -9 30 -6 26 6 31 3 46 -28 17 -37 14 -36 135 -37 25 0 60 7 77 16 28
15 31 19 18 31 -12 13 -19 13 -52 -1 -20 -9 -45 -13 -56 -11 -10 3 -21 1 -24
-4 -11 -18 -32 -9 -36 16 -4 21 -1 25 18 26 13 1 27 2 32 3 4 1 23 6 42 10 19
5 44 14 55 21 23 15 108 29 176 29 51 1 56 15 13 35 -28 12 -57 14 -67 4z"/>
<path d="M880 1234 c0 -13 18 -39 24 -34 2 3 -2 14 -10 24 -8 11 -14 16 -14
10z"/>
<path d="M926 1152 c-3 -6 5 -19 19 -30 16 -13 27 -32 28 -50 1 -19 6 -28 15
-25 6 3 12 1 12 -4 0 -5 -6 -15 -12 -23 -11 -12 -10 -12 5 -1 14 11 17 11 17
0 1 -10 4 -9 14 4 7 9 31 23 52 31 38 13 46 32 12 30 -10 0 -18 3 -18 8 0 5
-12 2 -27 -6 -27 -14 -29 -14 -69 30 -23 25 -45 41 -48 36z"/>
<path d="M2029 2438 c12 -18 40 -68 62 -110 21 -43 42 -78 44 -78 3 0 -2 14
-10 30 -9 17 -13 36 -9 42 4 6 3 8 -4 4 -6 -3 -14 4 -18 16 -7 24 -74 128 -81
128 -3 0 5 -15 16 -32z"/>
<path d="M2201 1864 c0 -11 3 -14 6 -6 3 7 2 16 -1 19 -3 4 -6 -2 -5 -13z"/>
<path d="M2484 1752 c-19 -13 -14 -54 6 -59 11 -3 18 -9 15 -13 -8 -14 25 -34
36 -23 8 8 8 13 0 17 -5 4 -8 13 -5 21 4 9 -1 17 -10 20 -52 16 -52 17 -32 24
11 4 15 10 10 14 -6 3 -14 3 -20 -1z"/>
</g>
</svg>
